<?xml version="1.0" encoding="utf-8"?>
<!-- Generator: Adobe Illustrator 16.2.0, SVG Export Plug-In . SVG Version: 6.00 Build 0)  -->
<!DOCTYPE svg PUBLIC "-//W3C//DTD SVG 1.1//EN" "http://www.w3.org/Graphics/SVG/1.1/DTD/svg11.dtd">
<svg version="1.1" id="Layer_1" xmlns="http://www.w3.org/2000/svg" xmlns:xlink="http://www.w3.org/1999/xlink" x="0px" y="0px"
	 width="300px" height="300.41px" viewBox="-54.844 -56.043 300 300.41" enable-background="new -54.844 -56.043 300 300.41"
	 xml:space="preserve">
<g>
	<defs>
		<path id="SVGID_1_" d="M245.156,94.37c0,82.839-67.157,149.997-149.999,149.997c-82.845,0-150.001-67.157-150.001-149.997
			c0-82.845,67.157-150.003,150.001-150.003C177.998-55.634,245.156,11.525,245.156,94.37z"/>
	</defs>
	<use xlink:href="#SVGID_1_"  overflow="visible" fill="#4E6AB2"/>
	<clipPath id="SVGID_2_">
		<use xlink:href="#SVGID_1_"  overflow="visible"/>
	</clipPath>
	
		<path clip-path="url(#SVGID_2_)" fill="#95BC35" stroke="#FFFFFF" stroke-linecap="round" stroke-linejoin="round" stroke-miterlimit="10" d="
		M118.841,154.761c0.151-0.817,1.93-1.585,0.98-2.235c-0.158-0.101-0.471,0.014-0.658,0.087c-0.541,0.203-1.265,0.271-1.701,0.232
		c-1.054-0.089-1.073-1.48-2.063-1.648c-0.485-0.085-0.852,0.261-1.292,0.352c-1.151,0.235-2.134-0.588-3.261-0.522
		c-1.002,0.065-1.987,0.283-2.998,0.207c-0.112-0.009-0.251-0.085-0.325-0.171c0.06-0.146,0.173-0.266,0.192-0.424
		c-0.626-0.47-2.794-0.269-3.638,1.056c-0.395,0.619-1.189,0.262-1.665,0.692c-0.309,0.283-0.302,0.768-0.648,1.021
		c-0.036,0.027-0.082,0.068-0.124,0.09l-1.597,0.262c0.146-0.637,0.823-0.52,1.185-0.841c-0.402-1.798,4.352-3.516,5.352-3.73
		c0.029-0.006,3.781-0.437,5.232-0.234c0.872,0.109,1.445,1.168,2.473,0.778l2.043,0.014c0.126,0.024,0.129,0.024,0.417,0.132
		c0.036,0.017,3.902,1.295,4.264,0.959l2.085-0.162c0.046,0.01,0.173,0.143,0.129,0.472c-0.017,0.088-0.007,0.221,0.037,0.302
		l2.101,0.095c0.006,0,0.778-0.334,1.242,0.068c-0.01,0.034,0.01,0.08,0.004,0.11c-0.004,0.009-1.525,1.245-1.972,1.419
		c-0.939,0.37-2.004,0.028-2.926,0.519c-0.01,0.008-2.59,1.083-2.73,1.119C118.94,154.785,118.881,154.769,118.841,154.761z
		 M132.205,154.302c-0.544,0.182-0.932,0.629-1.454,0.84c-0.05,0.017-0.116,0.041-0.168,0.054c-0.512,0.163-1.035,0.15-1.178,0.133
		c-0.473-0.056-1.809,0.329-1.818,0.334c-0.032,0.137-0.032,0.137,0.046,0.257c0.271,0.402,0.516,0.383,0.648,0.375
		c0.025-0.007,0.066-0.009,0.096-0.015c0.405-0.056,0.695-0.343,1.051-0.504c0.531-0.246,1.112-0.063,1.653-0.202
		c0.073-0.02,0.17-0.055,0.239-0.078c0.548-0.187,1.064-0.466,1.602-0.674c0.692-0.268,0.936-0.233,1.387,0.186
		c0.153,0.135,0.461,0.415,0.671,0.339c0.08-0.026,0.08-0.026,0.435-1.5c0.089-0.368,0.465-0.365,0.682-0.56
		c0.217-0.198,0.281-0.256,0.614-0.171c0.332,0.085,0.692-0.054,1.066-0.402c0.056-0.062,0.136-0.144,0.189-0.205
		c0.512-0.641,1.313-0.358,1.95-0.611c1.422-0.552,1.422-0.552,1.485-0.922c0.031-0.193-0.355-0.814-1.236-0.707
		c-1.584,0.192-1.584,0.192-1.899-0.018c-0.539,0.164-0.831-0.868-1.312-0.429c-0.088,0.073-0.225,0.199-1.107,0.083
		c-0.416-0.052-0.604-0.073-0.874-0.024c-0.469,0.106-0.869,0.388-1.329,0.499l-0.007,0.006c0,0-0.003,0-0.025,0.009
		c-0.495,0.303-0.592,1.076-1.312,1.112c-0.655,0.042-1.255-0.422-1.929-0.212c-0.419,0.142-0.642,0.273-0.646,0.273
		c-0.314,0.197-0.573,0.533-0.443,0.691c0.075,0.094,0.272,0.112,0.479-0.034c0.207-0.146,0.487-0.255,1.019,0.045
		c0.56,0.316,0.537,0.396,0.441,0.685c-0.038,0.115-0.141,0.419,0.076,0.563c0.658,0.426,1.434,0.293,2.152,0.455
		c0.006,0.013,0.02,0.044,0.029,0.059C133.116,154.417,132.617,154.166,132.205,154.302z M-1.953,33.897
		C-2.15,33.514-3,32.715-3.315,33.552C-3.506,34-1.289,35.025-1.953,33.897C-1.979,33.846-1.918,33.957-1.953,33.897z M-3.784,32.9
		c-0.641-1.46-1.796,0.085-2.344-1.644h-0.003c-0.351,0.021-1.381,0.177-1.603-0.018C-7.872,31.252-3.21,35.374-3.784,32.9
		C-3.807,32.848-3.778,32.927-3.784,32.9z M25.461,80.736c0.456,0.04,0.509-0.303,0.16-1.03c-0.121,0.331-0.236,0.662-0.355,0.994
		C25.365,80.703,25.39,80.703,25.461,80.736C25.599,80.798,25.39,80.703,25.461,80.736z M-1.569-15.487
		c-0.517,0.069-0.712,0.234-0.586,0.495c0.99-0.089,3.544-3.163,4.521-2.186c-0.025,0.563-0.88,0.528-0.818,1.15
		c-0.858-0.171,7.282-3.07,7.303-3.118c-0.041-0.062-0.041-0.062-0.2-0.112c-0.153-0.578,0.896-0.306,0.886-0.902
		c-1.612,0.14-2.563,1.091-4.066,1.395c0.159-1.149-2.274,1.537-2.44,0.476c0.343-0.029-2.374,1.449-2.403,0.963
		c-0.528-0.077-1.336,0.567-1.341,0.875c0.107,0.028,0.225,0.015,0.334,0.044C-0.453-16.218-1.261-15.666-1.569-15.487
		C-2.064-15.2-1.261-15.666-1.569-15.487z M169.76-35.985l0.608,0.349C170.147-35.764,169.918-35.894,169.76-35.985z
		 M169.574-36.091l0.186,0.106C169.671-36.036,169.598-36.078,169.574-36.091z M8.743,38.953c0.097,0-0.043-0.782-0.063-0.813
		c-0.392-0.496-1.193,0.717-1.331,0.665c-0.33-1.498-1.316,0.121-1.316,1.13c0.021,0.119,1.6-0.519,1.808,0
		C8.258,39.963,9.243,38.942,8.743,38.953C8.673,38.953,8.87,38.95,8.743,38.953z M-6.632-11.593
		c-0.011,0.048,0.005,0.079,0.05,0.094c-1.753,1.071,2.903-2.941,1.334-1.653c0.326-0.247,4.004-3.021,3.832-3.488
		c-0.497,0.533-1.095,0.891-1.793,1.072c0.065-0.122,0.208-0.205,0.223-0.362c-0.233,0.103-0.383,0.368-0.675,0.355
		c0.339-0.404,0.865-0.621,1.113-1.118c-0.077,0.024-0.137,0.083-0.225,0.075c0.419-0.166,0.589-0.39,0.508-0.673
		c-1.571,0.981-2.975,2.159-4.539,3.152c0.081-0.125,0.231-0.202,0.264-0.358c-0.222,0.168-0.222,0.168-0.267,0.188
		c0.003-0.005,0.443-0.542,1.181-1.277c-1.54,1.409-3.619,2.918-4.827,4.646c0.026-0.024,0.059-0.059,0.088-0.081
		c-0.01,0.015-0.022,0.037-0.032,0.054c1.768-1.535,1.768-1.535,2.233-1.865c-0.321,0.371-0.321,0.371-0.321,0.433
		c0.036-0.026,0.091-0.052,0.135-0.068c-0.013,0.045-0.029,0.099-0.047,0.139c0.367-0.066,2.913-2.247,2.981-2.307v-0.003
		c-0.018,0.014,1.29-1.026,1.409-1.063c-0.709,1-2.126,1.832-2.639,2.896c0.036-0.024,0.096-0.041,0.14-0.049
		c-0.022,0.054,0.002,0.081,0.075,0.08c-0.253,0.879-1.102,1.43-1.567,2.147C-7.515-10.887-7.171-11.822-6.632-11.593z
		 M155.413,3.792c-1.008-1.719,2.402,2.143,2.134,1.834c-0.739,0.123,2.117,1.787,0.863,0.272l0.978,0.399
		c-0.848,0.222,0.897,0.802,1.123,0.669c0.162-1.02,1.86,0.675,2.278,0.507c-0.396-0.708-1.096-0.78-1.495-1.637
		c0.672,0.243,2.236,1.458,2.809,1.319c-0.021-0.176-0.224-0.26-0.227-0.446c1.028,0.052-0.049-0.206,0.419-0.646
		c-0.358-0.833-0.358-0.833-0.254-0.89c0.127,0.105,4.738,3.625,4.579,3.604c-0.328-0.297-0.393-0.557-0.192-0.779
		c1.027,0.014,2.149,2.673,2.621,2.201c0.14-1.365,0.624-1.539,0.402-2.989c0.465,0.845,1.505,5.27,3.145,5.019
		c0.468-1.592-1.418-9.793-2.606-8.243c-0.152-0.856-0.997-0.516-0.797-1.148c-1.5-2.156-1.889-0.888-2.867,0.538
		c0.676,0-2.665-0.676-2.017-0.411c0.039-0.045,0.079-0.117,0.096-0.183c-0.181-0.197-1.39-0.195-1.548,0.077
		c0.661,1.744-5.342-0.819-3.002,1.514c-0.596-0.357-3.678-3.208-4.141-2.792c-0.148,0.134-0.063,1.673-0.235,1.838
		c-0.565-1.157-1.23-1.521-1.994-1.093C155.558,2.819,155.125,3.292,155.413,3.792C155.76,4.383,155.125,3.292,155.413,3.792z
		 M164.671,12.711c0.863,0.721,4.886,3.802,5.854,3.457c1.951-0.65-5.997-11.648-8.204-6.945
		C162.359,10.023,163.993,12.155,164.671,12.711C164.837,12.849,164.21,12.333,164.671,12.711z M188.109-0.356
		c-0.298,1.142,2.388,2.196,3.213,1.701C191.378,0.877,188.439-0.371,188.109-0.356C188.106-0.344,188.323-0.365,188.109-0.356z
		 M11.187-29.081c0.135-0.079,0.265-0.167,0.388-0.264C11.571-29.345,11.302-29.161,11.187-29.081z M11.133-29.046
		c0.008-0.005,0.034-0.022,0.054-0.036l-0.073,0.045L11.133-29.046z M239.957,53.666c0.154,0.686,0.353,1.359,0.595,2.02
		C240.252,54.578,240.206,54.438,239.957,53.666C239.96,53.676,240.206,54.438,239.957,53.666z M134.517-49.287
		c0.304,0.009,0.599,0.063,0.885,0.163c-0.306-0.041-0.612-0.067-0.92-0.08c0.013,0.034,0.069,0.034,0.064,0.083
		c1.587-0.87-1.52,0.035-0.922-0.252C133.19-49.642,134.747-49.273,134.517-49.287C134.833-49.265,134.309-49.3,134.517-49.287z
		 M192.58,3.021c0.026,0.088,3.035,1.475,3.286,1.397c0.018-0.006-2.875-3.042-3.972-3.042
		C191.895,1.368,192.443,2.719,192.58,3.021C192.585,3.037,192.509,2.865,192.58,3.021z M105.217-18.395
		c-0.482,0.048-1.551-0.503-1.908,0.033c0.301,0.892-1.705,1.032-2.189,1.608c0.231,0,0.888,1.268-0.736,0.538
		c0.194-0.242,0.118-0.427-0.229-0.554c0.464-0.293,0.464-0.293,0.469-0.302c0.064,0.066-0.841-0.227-1.007-0.282
		c0.102-0.906-2.48-0.106-2.639,0.948c0.256-0.011,0.507-0.094,0.766-0.038c-0.612,0.227-0.612,0.227-0.658,0.269
		c0.044,0.126-0.081,0.063-0.081,0.192c0.441,0.04,0.814-0.313,1.264-0.226c-0.197,0.189-0.593,0.083-0.669,0.451
		c0.2-0.011,0.384-0.098,0.584-0.086c-0.193,0.106-0.427,0.124-0.598,0.274c0.033,0.016,0.082,0.052,0.1,0.086
		c-0.5-0.06-0.749,0.046-0.749,0.318c0,0,1.188-0.038,1.473-0.05c-0.137,0.088-0.309,0.109-0.419,0.241
		c0.568-0.036,1.134-0.099,1.696-0.187c-0.075,0.132-0.222,0.187-0.318,0.301c0.181,0.06,0.354-0.067,0.534-0.015
		c-0.298-0.006-0.447,0.1-0.447,0.319c2.087-0.356-18.959,4.872,2.604-0.577c-0.449,0.29-1.041,0.249-1.47,0.591
		c0.015,0.006,0.038,0.018,0.054,0.028c-0.167,0.117-0.397,0.11-0.545,0.27c0.174,0.091,0.371-0.089,0.545,0.033
		c-0.446,0.24-0.446,0.24-0.569,0.355c0.247,0.051,0.506,0.024,0.751,0.1c-0.215,0.123-0.447,0.208-0.697,0.254
		c0.03,0.012,0.069,0.041,0.093,0.072c-0.029,0.029-0.065,0.062-0.085,0.095c0.202,0.111,0.438,0.041,0.646,0.114
		c-0.055,0.009-0.08,0.041-0.076,0.096c0.795-0.011,1.509-0.499,2.321-0.435c-0.124,0.051-0.124,0.051-0.186,0.098
		c0.173,0.452,1.603-0.221,2-0.606c-0.349-0.016-0.648,0.411-1.024,0.106c0.78-0.74,1.149-0.121,0.778-0.601
		c1.113-0.789,2.878-0.658,3.967-1.662c0.007-0.624-5.231,0.026-5.993-0.301c0-1.693,2.115-0.489,2.672-1.013
		c-0.298-0.088-0.298-0.088-0.36-0.181c0.063-0.238,0.305-0.311,0.45-0.477C105.197-18.354,105.304-18.295,105.217-18.395
		C105.168-18.39,105.23-18.38,105.217-18.395z M111.567-34.06c0.358-1.045-2.546-0.186-1.407,0.484
		C110.672-33.34,111.472-33.766,111.567-34.06C111.652-34.307,111.472-33.766,111.567-34.06z M86.411,10.599
		c-0.049,0.986-1.698,1.359-1.118,2.516c1.135,0.249,1.356-0.046,2.204,0.681c0.571-0.34,0.734-0.42,1.215-0.933
		c0.033,0.07,0.328,0.085,0.406,0.096c0.27,1.227-2.249,1.188-1.942,2.312c0.255-0.145,0.44-0.045,0.554,0.296
		c0.152-0.301,1.139-0.225,1.44-0.279c0,0.236,0,0.236-0.523,0.833c0.485,0.17,1.342,0.26,1.735,0.152
		c-0.109-0.096-0.225-0.269-0.271-0.402c0.145-0.008,0.345,0.05,0.471,0.127c-0.003-0.145,0.016-0.349,0.045-0.497
		c0.007,0,0.007,0,0.613,0.386c-0.036-0.285-0.052-0.399,0.269-0.971c0.111,0.132,0.301,0.282,0.455,0.358
		c0-0.176,0.054-0.417,0.122-0.575c3.871,0.959,6.154,1.883,9.108,4.288c0.022-0.068,0.059-0.16,0.085-0.229
		c1.95-0.041,0.746,2.845,2.45,3.168c0.943-0.863,0.525-1.079-0.354-2.238c0.932,0.459,1.465,1.464,2.285,1.798
		c1.175-2.882,5.225,3.751,5.418,4.002c-0.427,0.601-0.505,0.577-1.112,0.396c-0.988,2.964,5.401,6.999,7.509,8.499
		c0.426-1.019,0.087-1.307,0.358-2.111c0.291-0.046,0.291-0.046,0.739,0.239c0.284,0.114,6.286,9.459,9.082,4.136
		c0.797,0.915,1.297,0.974,1.5,0.176c1.392,0.31,1.146,1.411,2.853,0.495c0.064-1.468-1.297-1.938-1.997-3.323
		c0.148,0.018,0.347,0.015,0.497-0.008c-0.406-0.994-3.739-1.979-2.748-3.317c0.134,0.024,0.325,0,0.456-0.055
		c0.27-1.979-2.082-2.427-2.55-3.064c1.832-0.645-0.985-0.813-1.097-1.565c1.179-1.054-0.589-1.305,0.66-2.792
		c-0.2-0.155-0.443-0.238-0.625-0.417c0.403-0.278,0.374-0.685-0.087-1.222c0.534,0.399,0.415,1.337,1.236,1.494
		c0.386-0.591,0.033-2.018-0.349-2.641c0.083,0.008,0.199,0.017,0.28,0.024c1.233-1.34-2.579-4.527-2.992-5.35
		c1.415,0.13,1.487,0.068,1.844-0.217c-0.344-2.499,0.873-4.719-1.331-7.489c-0.57,0.665-1.482,2.742-1.694,2.917
		c-1.305-1-1.683-1.759-2.212-2.795c-0.556-0.058-0.544,0.756-0.936,0.186c0.271-0.506,4.207-1.373,4.044-1.311
		c-0.024-0.082-2.625-1.734-2.017-0.627c-1.229-0.046-1.733-0.579-3.064-0.089c-0.056,0.267,0.065,0.526,0.005,0.792
		c-0.173-0.02-0.412-0.125-0.551-0.248c0.056-0.05,0.125-0.117,0.178-0.163c-1.006,0.024-1.51-0.305-1.514-0.987
		c2.677-0.108,2.677-0.108,2.84-0.282c0.873,0.098-5.003-1.019-4.184-0.489c0.012-0.302,1.176-0.417,1.51-0.545
		c-0.166-1.505-0.198-1.821-1.517-1.199c-0.054,0.164-0.151,0.306-0.291,0.425c-0.046-0.029-0.046-0.029-0.614-0.57
		c0.479-0.011,0.479-0.011,0.731-0.216c-0.023-0.256-0.023-0.256-0.421-0.632c0.142-0.106,0.292-0.159,0.451-0.158
		c0-0.008-0.001-0.014,0.007-0.016c-0.394-0.254-1.321-0.515-2.031-0.352c0.22,0.16,0.479,0.277,0.671,0.474
		c-0.708,0.073-1.219-0.199-1.531-0.816c0.578-0.033,0.578-0.033,0.736-0.132c-1.034-0.535-2.836-0.648-2.853-0.648
		c-0.319,0.264-1.123,0.582-1.563,0.272c0.361-0.281,0.225-0.544-0.41-0.789c0.073-0.078,0.073-0.078,1.026-0.666
		c-0.01-0.003-0.872-0.561-1.536-0.378c0.688,0.994-2.18-0.96-1.65,0.847c-1.507-0.862-3.289-1.342-4.495-2.514
		c0.054-0.07,0.123-0.16,0.172-0.228c-0.887-0.481-2.628-0.818-2.328-0.989c-1.701-1.488-4.051-1.354-2.214-0.257
		c-0.267,0.191-0.321,0.402-0.165,0.632c-0.081,0.018-0.194,0.039-0.275,0.052c0.01,0.008,1.284,1.059,1.793,1.629
		c-1.097-0.416-1.874-1.438-3.089-1.632c-0.458,0.8,0.605,0.76,0.585,1.623c-1.737-2.41-1.41,0.736-1.6,1.243
		c-2.612-2.57,1.865-3.212-4.101-2.603c0.41,1.266-1.446,0.69,0.311,2.458c-0.334-0.124-0.684-0.161-1.018-0.26
		c0.583,0.409-1.083,0.291,0.71,1.795c-2.339,0.246,1.3,0.753,1.257,0.854c0.25,0.064-2.208-0.44-2.554,0.357
		c0.406,0.228,0.881,0.3,1.268,0.567c-0.199,0.037-0.275,0.154-0.228,0.352c-0.802-0.416-1.163-0.29-1.325-0.238
		c0.846,0.628,0.846,0.628,0.959,1.246c-1.212-1.241-1.212-1.241-1.533-1.206c0.169,0.972-0.225,0.783,0.016,1.857
		c-0.402-0.255-0.402-0.255-0.907-0.329c-0.233,0.672,0.028,1.222,0.787,1.647c-0.708,0.344-0.96-0.225-0.389,0.795
		c-0.119-0.106-0.318-0.213-0.476-0.218c-0.088,0.384-0.437,2.014,0.065,2.323c0.316-0.02,0.484-0.166,0.505-0.44
		C88.211,8.768,87.639,9.885,86.411,10.599C86.362,11.585,86.753,10.401,86.411,10.599z M133.107,11.158
		c-1.272-0.67-0.139,1.363,0.291,1.634c1.01,0.655,0.02-3.766,0.02-1.585C133.421,11.238,133.392,11.297,133.107,11.158
		C133.088,11.149,133.392,11.297,133.107,11.158z M86.292-21.979c0.384,0.515,0.45,0.512,1.254,0.518
		c0.313,0.813-0.629-0.125,0.165,0.235c0.033,0.112-0.078,0.166-0.101,0.257c0.737-0.122,1.54-1.289,2.164-1.289
		c-0.134,0.179-0.383,0.252-0.441,0.495c0.147,0.011,1.282-0.454,1.254-0.661c-0.222-0.094-0.407,0.154-0.313-0.218
		c-1.487,0.054,0.004,0.038-0.893-0.093c0.285-1.081-0.697-0.096-1.17-0.428c0.418-0.038,0.657-0.246,0.715-0.624
		c-0.145-0.139-0.272,0.129-0.427,0.073c0.03,0.143-0.118-2.295-0.482,0.372c0.254,0.104,0.16,0.24-0.283,0.407
		C87.372-23.805,85.891-22.595,86.292-21.979C86.365-21.881,86.285-21.989,86.292-21.979z M134.361,8.477
		c0.375,1.278,0.506,2.22,0.01,2.756c0.186,1.663,0.532,2.268,1.362,0.919c0.525-0.746,2.097,1.496,2.426,1.364
		c5.525-2.161-0.859-10.815-3.76-6.899c-0.021,0.063,0.886,1.078,0.886,1.406C134.955,7.991,134.591,8.191,134.361,8.477
		C134.448,8.773,134.472,8.339,134.361,8.477z M19.327,67.563c-0.214-0.955,2.094-4.288,1.882-5.249
		c-1.32-0.314-0.088,0.127-1.238-0.82C19.076,61.106,19.335,67.608,19.327,67.563C19.384,67.818,19.291,67.378,19.327,67.563z
		 M240.455,59.552c0.188,7.369,5.098,27.11-3.914,31.375c-1.042-2.49-3.447-2.2-5.091-3.195c-0.211,3.735-6.641-10.651-8.798-12.765
		c-3.818-3.743-5.076-8.697-7.119-14.673c-1.451-4.245-1.525-9.846-3.448-13.69c-1.744-3.488-9.372-12.686-8.814-16.224
		c0.197,0.008,0.462,0.02,0.658,0.024c2.431-5.91-3.836-21.486-4.598-27.034c0.698,0.735,5.223,4.103,5.472,4.045
		c-0.064-0.195-0.157-0.455-0.223-0.647c0.207,0.028,0.479,0.072,0.681,0.101c0.619-1.644-0.713-3.206-0.202-4.843
		c0.192,0.062,0.448,0.147,0.643,0.208c0.056-4.314-5.89-10.162-7.903-13.334c-1.008-7.477-13.518-15.244-19.819-17.332
		c4.556,3.007,5.298,4.055,8.872,9.076c-0.904,1.675-2.074,0.248-3.32-0.379c0.08,0.184,0.183,0.43,0.263,0.611
		c-1.876-0.909-2.76-2.886-4.452-3.99c1.55,1.723,6.868,9.809,9.433,9.809c-0.979-0.02,0.311,0.337,0.515-0.005
		c0.052,0,1.005,1.046,0.935,1.212c-0.434-0.16-0.854-0.349-1.261-0.567c0,2.233-2.401,0.396-4.564-0.22
		c2.35,1.757-2.998,3.745-1.833,5.216c-0.415,0.19-0.891,0.16-1.3,0.36c1.752,2.013,4.6,2.623,6.409,0.577
		c-0.031-0.15-0.031-0.15-0.409-1.396c0.236,0.13,0.537,0.329,0.753,0.492c-0.031-0.962,0.332-1.737,1.091-2.323
		c-0.004-0.001,1.117,0.969,0.973,0.93c-3.022-0.812,4.823,3.658,4.418,4.419c-1.136,0.067-2.998-0.979-3.604-0.932
		c-6.301,1.03-5.384,4.918-2.256,9.6c1.091,1.625,5.438,14.815,9.467,14.22c2.478-0.439,4.957,10.302,4.638,11.943
		c-0.155,0.796-2.525-0.454-2.525,0.575c-0.009,0.171,0.636,2.835-0.48,2.835c-0.738-1.113-1.774-1.772-3.108-1.976
		c0.24-1.011-8.046-5.124-8.822-7.182c-0.225-0.596,0.616-8.331,1.654-8.7c0.025-2.108-5.889-3.494-4.009-4.521
		c-2.817-0.015-4.581-0.615-6.059,2.211c-0.353-0.512-0.722-0.602-1.107-0.272c-1.658-1.478-1.242-5.707-1.879-7.372
		c-0.033,0.017-6.991-7.59-8.663-8.691c0.41-0.122,0.826,0.021,1.234,0.003c-1.311-1.42-2.813-1.917-3.116-3.96
		c0.119-0.027,0.278-0.062,0.401-0.088c-3.159-1.764-8.082,0.363-9.874-4.413c1.524,1.047,2.317,1.043,2.38-0.011
		c2.091,0.735,3.874,0.837,5.629,1.227c-0.375-1.155-1.934-1.864-2.206-3.1c0.251,0.039,0.583,0.116,0.824,0.186
		c-0.168-0.426,0.238-0.191,0.722-0.575c-1.351-1.512-2.655-2.611-3.962-4.073c0.156-0.207,0.478-0.395,0.727-0.469
		c-0.331-0.961-0.339-0.979-1.76-1.844c0.019-0.045-6.447-1.548-7.283-2.338c0.477-0.376,0.952-0.752,1.429-1.129
		c-0.277-1.805-2.712-1.265-3.918-0.577c0.01,0.125,0.029,0.292,0.039,0.416c-4.015,0.993-3.702-4.262-7.176-4.495
		c0.391,0.45,0.223,0.752-0.504,0.907c0.958,0.336,4.654,3.964,4.686,3.995c-0.313,0.289-0.557,0.929-0.495,1.347
		c-3.212,0.202-10.953-3.435-13.339-2.144c0.403,8.111,26.053,0.714,28.072,10.946c-2.576-0.109-5.908-0.061-8.468,0.697
		c1.458,0.878,4.031,3.29,4.041,3.301c2.552,3.521-7.333,1.318-6.93,1.43c-3.279-0.914-5.281-3.738-7.97-5.57
		c-1.501-1.026-10.509-5.721-12.016-4.524c0.856,0.795,1.867,1.396,2.784,2.113c-1.387-0.505-2.548-1.458-3.908-2.008
		c0,0,0,0,0.217-0.245c-0.129-0.075-0.3-0.174-0.429-0.248c0.125-0.082,0.29-0.194,0.415-0.282
		c-1.365-0.795-3.028-0.412-4.311-1.319c0.243-0.08,0.565-0.178,0.807-0.25c-0.871-0.145-0.871-0.145-1.212-0.499
		c0.127-0.044,0.295-0.106,0.422-0.151c-0.849,0.193-1.458-0.061-1.829-0.762c0.113-0.064,0.273-0.153,0.393-0.212
		c-0.241,0.062-0.577,0.114-0.824,0.111c0.106-0.892-0.505-1.331-1.833-1.318c1.188,0.205,1.342,0.137,1.766-0.038
		c-1.183-0.137-1.183-0.137-1.727-0.414c0.302-0.01,0.705-0.094,0.978-0.228c-0.751-0.029-1.506,0.065-2.247-0.075
		c0.635-0.941-0.132-0.536,0.123-1.833c1.872,0.23,1.392-0.942,1.376-2.209c-1.408-0.421-1.82-4.901,0.265-5.027
		c2.564-0.154,4.866,4.514,5.561,4.387c0.487-0.809,4.211-2.229,2.944-2.94c0.508-0.333,0.844-0.435-0.204-1.246
		c-0.647,0.341-0.908,1.127-2.088,1.005c-0.135-2.386-6.314-2.825-7.129-2.887l0.078-0.394c-1.21-0.081-3.015,2.226-4.208,2.597
		c-1.184-2.928,1.821-0.728,2.231-2.792c-1.802-1.969-9.992-1.463-12.896-2.618c0.44,1.077-9.202-1.791-8.604-2.149
		c0.2,3.059-2.815,5.222-6.29,4.386c0.188-1.587,4.035-3.415,2.517-5.293c2.807-1.03,3.034-2.024,5.656-1.531
		c-1.563-0.669-6.416-1.931-6.296,1.268c-1.44,1.475-4.227-1.631-5.728-1.841c1.903,0.622,2.496,0.992,2.894,1.235
		c-1.793,1.365,2.14,1.454,2.486,1.715c-0.338,2.417-2.825,2.757-3.581,4.502c0.148,0.305,0.848-5.248-1.399-2.517
		c1.047,0.535,0.787,0.263,1.314,0.562c-0.809,1.32-3.894,0.634-5.405-0.125c1.708-0.801,0.164-2.616-1.231-2.009
		c1.717-0.4,0.249,2.561,2.482,3.313c-0.915,2.704-4.068,0.736-5.332,1.906c0.149-0.025,0.256,0.072,0.319,0.292
		c-0.001,0.049-5.463,4.446-6.12,5.094c-0.098-0.663-0.098-0.663-0.916-1.45c-4.343,3.492-11.671,6.075-6.893-2.703
		c-2.668,1.334-10.986,6.188-10.986,6.188c-0.647,0.597-5.153,1.608-5.428,0.718c0.694-0.195,0.694-0.195,1.056-0.241
		c-1.981,0-2.851-0.286-4.687,0.632c0.549,2.057-2.61,2.369-3.483,4.591c0.631-0.004,1.646,0.613,1.729-0.228
		c0.904,0.442-1.17,1.118,0.275,1.165c-3.538,2.09-1.595,1.122-4.368,1.793c-0.135,0.502,0.06,0.925,0.585,1.268
		c-0.874,0.71-2.115,0.318-3.004,0.98c0.103,0.023,0.233,0.054,0.335,0.079c-2.935,1.929-1.613,2.847-3.259,4.814
		c-1.571,1.877-6.953,2.643-5.934,6.561c0.372,0.059,0.748-0.101,1.113,0.039c-0.53,0.869-0.886,0.872-1.146,0.876
		c0.086-0.187,0.217-0.43,0.333-0.604C26.769-3.973,24-2.383,25.093-1.47c0.888-0.533,1.776-1.067,2.664-1.6
		c-0.711,1.651-8.514,11.31-8.514,12.407c-0.16,0.021,1.591-0.607,1.419-0.708c-0.741,3.32-0.938,3.1-2.364,2.202
		c-0.523,0.155-1.583,1.102-2.222,1.048c1.1,0.124,0.411-4.321,0.429-4.285c-0.049,0.04,1.574-0.745,1.604-0.785
		c-0.16,0.216-0.206-0.964-0.117-0.74c-0.196-0.44-2.006,1.092-2.6,0.771c0.125-0.381,0.292-0.953,0.295-1.295
		c-0.8,1.857-2.972,3.818-5.088,3.087c0.695-0.353-3.378-4.296-4.556-4.646c2.443-1.89,1.39-1.35,0.453-3.429
		c0.807-0.28,0.807-0.28,1.079-0.495C7.302-0.178,7.08-0.464,6.801-0.699c0.26-0.233,0.413-0.879,0.478-1.237
		C6.353-2.047,4.39-2.322,3.568-1.745c0.516,0.659-3.542,2.108-3.468,2.083C0.115,0.143,0.115,0.143,0.673-0.6
		c-0.999-0.426-1.912-0.14-2.74,0.86c-0.351-0.567-0.143-1.1,0.624-1.598c-0.52-0.725-1.131-0.7-1.836,0.075
		c0.083-0.2,0.208-0.461,0.319-0.65c-0.692-0.888-1.936-0.234-2.677-0.963c3.65-2.79,7.147-3.782,11.371-3.836
		c-0.062,0.096-0.15,0.23-0.207,0.326c1.271,0.635,6.228,5.04,6.373,4.477c0.991-1.364,0.991-1.364,0.837-1.748
		c-1.043-0.146-2.583-0.059-2.543-1.922c4.322-0.418,1.343-2.464,2-4.555c-2.232-1.197-0.541,0.118-2.507,0.422
		c0.347-0.376,1.243-1.398,0.591-1.851c1.111-1.377,1.111-1.377,1.349-1.396c0.045,0.109,0.106,0.248,0.153,0.352
		c1.929-1.22,6.989-7.515,5.578-9.955c-0.325-1.407-0.088-2.807,0.66-4.12c-0.461,0.187-5.948,3.527-4.77,3.69
		c-0.479,0.388-2.636,2.219-3.628,2.276c0.073-0.088,0.165-0.202,0.236-0.285c-0.554,0.337-6.354,1.624-5.188,0.241
		c-0.328-0.052-0.4-0.221-0.217-0.507c-2.208,0.065,5.013-6.224,5.399-6.715c-0.107,0.05-0.243,0.114-0.347,0.161
		c17.082-13.406,39.658-21.973,60.915-25.464c13.258-2.178,27.097-3.02,40.477-1.444c13.658,1.609,31.826,7.593,40.575,10.109
		c0.236,0.116,0.478,0.223,0.72,0.335c-0.619-0.16-1.215-0.393-1.834-0.554c0.042,0.063,0.095,0.151,0.137,0.213
		c-0.512-0.149-1.005-0.344-1.479-0.586c0.068,0.021,0.165,0.047,0.238,0.066c-1.809-0.754-1.809-0.754-1.828-0.759
		c1.042,0.506,2.108,0.936,3.131,1.494c-1.179-0.287-2.383-0.427-3.546-0.754c0.335,0.478,0.888,0.771,1.124,1.336
		c-6.234-1.624-6.234-1.624-6.266-1.611c3.556,1.166,7.146,3.396,10.856,4.075c-0.023-0.13-0.056-0.303-0.083-0.432
		c0.435,0.107,0.435,0.107,1.38,0.054c-0.14-0.232-0.07-0.363-0.23-0.637c0.041-0.125,0.182-0.031,0.27-0.059
		c-0.029-0.038-0.075-0.065-0.098-0.109c0.148,0,0.078,0.003,0.052-0.11c0.465-0.37,4.013,1.559,4.718,1.434
		c-1.516-0.784-3.031-1.568-4.547-2.353c13.966,5.931,26.314,13.867,38.026,23.517c-0.97-0.749-0.97-0.749-1.728-1.223
		c2.479,1.929,2.479,1.929,2.762,2.461c-0.209-0.082-0.485-0.184-0.694-0.264c10.431,4.602,18.473,17.612,25.178,26.275
		c9.949,14.722,23.022,35.211,23.553,53.457C241.123,60.267,240.77,59.811,240.455,59.552
		C240.625,66.195,240.77,59.811,240.455,59.552z M9.403-26.51c0.487-0.368,0.481-0.386,0.473-0.417
		c-0.596,0.073-0.99,0.364-1.183,0.873C8.969-25.986,9.205-26.138,9.403-26.51C9.89-26.879,9.025-26.229,9.403-26.51z M54.716-48.12
		c0.634-0.22,0.64-0.228,0.681-0.277c-2.228,0.267-5.399,1.716-6.878,3.118c0.022,0.859,1.339,1.607,1.585,0.396
		c-1.163-0.166,0.636-0.734,0.868-1.192c-0.01-0.01-0.024-0.022-0.034-0.031C51.769-47.066,53.54-47.712,54.716-48.12
		C55.349-48.34,54.039-47.885,54.716-48.12z M105.762-54.636c1.601,0.137,3.252,0.277,3.959,0.179
		c-2.368-0.783-8.363-0.928-10.747-0.604C99.077-54.932,106.317-54.59,105.762-54.636C107.363-54.5,102.504-54.912,105.762-54.636z
		 M131.285-49.696c-0.306-0.202-0.907-0.093-1.106-0.388c0.003-0.013,0.003-0.013,0.037-0.034c-0.305-0.142-0.616-0.199-0.934-0.173
		c0.331,0.111,0.656,0.237,0.977,0.376c-0.007,0.006-0.01,0.013-0.014,0.023c0.02,0.05,0.093,0.071,0.146,0.07
		C130.764-49.72,131.238-49.673,131.285-49.696z M136.043-48.785c0.116-0.189,0.312,0.018,0.461-0.023
		c-1.034-0.627-4.935-2.142-5.783-1.561c0.036,0.086,0.102,0.142,0.238,0.256c-0.176,0.059-0.354-0.008-0.526,0.006
		c2.403,0.96,1.712,0.128,1.37,0.523c0,0,0.383,0.144,0.5,0.106c-0.003-0.008-0.016-0.018-0.022-0.028
		c0.351-0.004,0.684,0.058,0.997,0.186c-0.112,0.022-0.222-0.063-0.337-0.024C134.245-48.887,136.032-48.785,136.043-48.785
		C136.159-48.974,136.032-48.785,136.043-48.785z M139.407-48.379c0.139,0.106,1.053,0.354,1.134,0.272
		C140.493-48.29,139.593-48.434,139.407-48.379C139.546-48.273,139.507-48.408,139.407-48.379z M141.107-48.063
		c0.01,0.005,1.238,0.43,1.329,0.391C142.281-47.63,141.337-48.178,141.107-48.063C141.116-48.058,141.11-48.065,141.107-48.063z
		 M176.327-30.53c-0.056-0.026-0.065-0.018-0.072-0.015c0,0.128,0.28,0.426,0.412,0.407
		C176.625-30.331,176.512-30.462,176.327-30.53C176.272-30.555,176.415-30.486,176.327-30.53z M173.281-33.715
		c0.034,0.034,0.629,0.375,0.687,0.383c-0.127-0.096-0.481-0.423-0.609-0.375c0,0.006,0.003,0.015,0.006,0.021c0,0-0.003,0-0.006,0
		C173.334-33.685,173.315-33.715,173.281-33.715z M173.03-33.82c0.125,0.236,0.54,0.321,0.004-0.003L173.03-33.82z M172.225-34.197
		c0.014,0.068-0.101,0.003-0.146,0.015c-0.013,0.059,0.768,0.44,0.857,0.416C172.879-33.936,172.376-34.213,172.225-34.197
		C172.239-34.128,172.239-34.198,172.225-34.197z M165.288-36.912c-0.015-0.006-0.034-0.01-0.05-0.013
		c0.059,0.075,1.966,1.208,2.1,1.204C167.137-36.24,165.67-36.739,165.288-36.912C165.274-36.919,165.585-36.777,165.288-36.912z
		 M164.953-37.512c-0.041-0.015-0.061-0.018-0.063-0.008c-0.007,0.027,0.275,0.187,0.342,0.167
		C165.166-37.442,165.073-37.495,164.953-37.512C164.912-37.527,165.022-37.49,164.953-37.512z M163.717-38.347
		c0.172,0.099,0.205,0.121,0.229,0.151c-0.192-0.077-0.387-0.149-0.583-0.217c0.042,0.077,0.661,0.455,0.715,0.458
		c-0.013-0.039-0.051-0.062-0.07-0.095c0.175,0.085,0.353,0.164,0.533,0.236c-0.12-0.023-0.18-0.075-0.178-0.156
		c0.184,0.134,0.341,0.154,0.471,0.06c-0.243-0.187-0.827-0.625-0.978-0.485c0.026,0.028,0.086,0.031,0.093,0.083
		c-0.119-0.124-0.234-0.161-0.346-0.111C163.648-38.406,163.686-38.38,163.717-38.347C163.889-38.248,163.707-38.354,163.717-38.347
		z M162.611-37.649c-0.029-0.008-0.061-0.015-0.07-0.001C162.382-37.451,163.49-37.408,162.611-37.649
		C162.581-37.657,162.671-37.632,162.611-37.649z M160.639-39.154c-0.264-0.034-0.16,0.059,0.312,0.277
		C160.921-39.058,160.927-39.085,160.639-39.154C160.579-39.175,160.667-39.147,160.639-39.154z M178.385-23.577
		c-2.382-2.332-4.835-4.256-7.297-6.537c0.076-0.015,0.176-0.028,0.256-0.039c-0.08-0.438-0.521-0.525-0.769-0.793
		c0.234,0.036,0.234,0.036,0.344,0.013c-0.476-1.909-7.075-6.54-8.091-5.598c0.03,1.297,0.962,1.968,0.962,3.108
		c-0.769,0.072-2.443-1.577-3.101-1.178c0.158,0.084,0.209,0.195,0.153,0.333c-1.092-0.411-2.137-0.918-3.136-1.521
		c-0.337,0.638,7.088,4.527,7.978,4.299c-0.07-0.074-0.166-0.168-0.234-0.243c0.025,0.007,2.68,1.421,2.777,1.816
		c-0.362-0.356-0.688-0.428-0.977-0.215c0.258,0.282,0.258,0.282,0.313,0.357c-0.072,0.041-0.175,0.082-0.249,0.109
		c0.059,0.155,0.196,0.243,0.288,0.372c-4.25-1.515-1.023-1.408-1.167,0.06c-0.271-0.125-0.451-0.41-0.778-0.432
		c2.159,2.16,8.676,7.135,11.996,7.214c0.14-0.468,0.88-0.149,1.118-0.14C178.773-22.696,178.746-23.22,178.385-23.577
		C177.531-24.412,178.746-23.22,178.385-23.577z M90.206-30.23c0.129,0.013-3.307,0.191-1.947,1.323
		c1.07,0.458,4.693-2.023,4.907-0.101c3.693,0,7.037-3.27,10.569-3.27c-0.069,0.621,1.304-0.203,1.287-0.499
		c-1.018-0.661-0.368,1.141,0.146-0.844c-0.152-0.103-0.312,0.063-0.46-0.011c0.148-0.165,0.317-0.31,0.453-0.492
		c-2.912-1.56-9.613,3.907-14.88,3.907C90.282-30.243,90.257-30.247,90.206-30.23C88.962-30.355,90.281-30.219,90.206-30.23z
		 M71.205-25.212c1.501,3.708,2.011,1.709,3.902,0.409c0.379,0.452,0.557-1.171,0.026-0.844c-0.542,0.264,0.509,0.625-0.287-0.222
		c-0.813,0-1.48-0.002-2.134,0.194C72.462-25.875,70.711-26.407,71.205-25.212C71.288-25.007,71.006-25.693,71.205-25.212z
		 M68.913-26.094c-1.115-0.058-0.528,0.75,0.096,1.062c-0.111-0.039,0.607-0.444,0.536-0.21c0.222,0.085,0.343,0.584,0.657,0.722
		c0.488-0.39,0.73-2.068,0.556-2.659c-0.003-0.011-1.248,0.491-1.577,0.567C68.988-26.456,69.519-26.028,68.913-26.094
		C68.847-26.097,69.107-26.073,68.913-26.094z M62.119,14.86c-0.095,0.028-5.181,1.708-4.804,2.33
		c0.173-0.032,0.846-0.099,1.036-0.106c0.225,0.252-0.21,0.524,0.023,0.775c0.301-0.273,0.571-0.572,0.812-0.897
		c0.041,0.122,0.091,0.239,0.151,0.352c2.416-0.393,0.249-1.824,0.795-0.003C60.977,18.155,62.446,14.86,62.119,14.86
		C61.813,14.949,62.126,14.86,62.119,14.86z M63.643,14.066C61.343,14.066,65.172,14.601,63.643,14.066
		C63.462,14.066,63.653,14.07,63.643,14.066z M66.587,21.77c0.635,0.029,0.795-0.271,0.482-0.901
		C66.839,20.925,66.481,21.601,66.587,21.77C66.634,21.84,66.481,21.601,66.587,21.77z M67.947,16.915
		c0.092-0.214-0.178-1.492-0.194-1.505C67.209,16.304,67.273,16.806,67.947,16.915C67.973,16.854,67.883,17.057,67.947,16.915z
		 M67.665,19.789c0.276,0.632,2.297,1.619,2.297,0.782c-0.241-0.169-0.712,1.39-0.497,1.632c1.637,1.889,1.603-3.729,1.614-3.812
		c0.882,0.175-2.343,0.253-1.082-0.005c-0.927,0.167,0.441,1.363,0.036,1.615c-0.422-0.388-0.698-0.849-0.828-1.383
		c-0.313,0.503-0.431,1.049-0.355,1.637c-0.405-0.281-0.657-2.159-1.118-2.159C67.403,18.181,67.473,19.681,67.665,19.789z
		 M63.928,15.495c0.311,1.41,2.376-1.079,1.906-1.235C65.121,14.123,63.691,14.387,63.928,15.495
		C63.955,15.619,63.788,14.842,63.928,15.495z M62.802,19.927c-0.304-0.819,0.17-1.606-0.826-1.663
		c-0.971-0.999-1.975,0.185-2.944,1.448c-0.153,0.153,0.504,0.595,0.635,0.801c0.189-0.003,0.311-0.151,0.471-0.215
		c0.207,0.178-0.036,0.386-0.02,0.578c0.42-0.32,0.811-0.673,1.17-1.059c0.958,1.226-2.049,1.244,0.534,0.604
		c1.635,1.783-0.701-0.401-1.554,1.178c-0.598,1.471,3.848-0.1,4.356-0.243c1.346,1.523,1.906-2.049,1.58-2.049
		c-0.201,0.213-0.397,0.43-0.588,0.651c-0.025-0.376-0.168-0.477-0.429-0.3c0.029-0.131-0.07-2.225,0.016-2.203
		C62.799,17.774,65.954,21.503,62.802,19.927C62.67,19.573,62.812,19.932,62.802,19.927z M70.607,13.439
		c-0.752-0.56,0.507-0.628-0.639-0.169c-0.512-0.311,0.281-1.431-0.999-1.16c-0.691,0.295,0.955,1.693,0.039,1.693
		c-0.168-0.051-0.856-0.047-0.399,0.458c0.231,0.28,2.752,0.859,2.652,1.124C71.388,15.06,71.26,13.333,70.607,13.439
		C70.563,13.406,70.987,13.377,70.607,13.439z M58.956,18.813c0.595-0.162,0.901-0.469,0.917-0.922
		c-0.169-0.038-1.476,0.531-1.348,0.842C58.567,18.808,58.806,18.893,58.956,18.813C59.254,18.649,58.806,18.893,58.956,18.813z
		 M65.12,13.683c1.251,0.506,1.148-0.764,0.842-0.764C65.114,13.141,64.268,13.321,65.12,13.683
		C65.205,13.718,64.86,13.573,65.12,13.683z M62.591,16.599C60.965,16.24,63.823,17.004,62.591,16.599
		C62.392,16.555,62.68,16.629,62.591,16.599z M69.377,15.886c0.155,0.509,1.767-0.57,0.161-0.57
		C69.411,15.368,69.353,15.808,69.377,15.886C69.415,16.01,69.353,15.808,69.377,15.886z M74.364,16.003
		c0.079-0.541-2.045-0.039-1.609,0.49C72.954,16.742,74.302,16.415,74.364,16.003C74.395,15.788,74.357,16.046,74.364,16.003z
		 M72.425,14.982c0.106,0.719,2.138-0.258-0.236-1.445C71.087,13.578,72.432,15.046,72.425,14.982
		C72.448,15.136,72.402,14.775,72.425,14.982z M74.746,21.632c0.031,0.146,0.207,0.903,0.648,1.286
		c0.252-0.085,0.125-0.414,0.337-0.525c1.107,0.434,1.62,0.021,1.769,0.648c0.419,0.986,3.333-1.131,3.475-1.367
		c7.916,0.862-4.382-1.719-3.702-1.1c-0.176,0.089-0.091,0.311-0.218,0.423c0.204,0.021-0.484-1.236-0.658-1.236
		c0.141,0.005-0.813,0.266-0.796,0.254c-0.117-0.079,0.023-1.369-0.171-1.688C73.909,18.687,74.406,20.033,74.746,21.632z
		 M78.841,5.753c-0.757,0,0.692,0.138-1.131-0.642c-0.14,0.49-0.3,0.761-0.472,1.22c-0.395-0.366-0.395-0.366-0.417-0.394
		c-0.203,0.626-0.64,0.974-1.31,1.042c0.015,0.146,0.026,0.173,0.144,0.28c0.061-0.285,0.19-0.402,0.388-0.35
		c-0.075,0.246-0.081,0.496-0.017,0.749c-0.318,0.238,0.783,1.302,1.175,1.522c0.108-0.539,0.32-1.027,0.635-1.465
		c0.458,0.287,0.41,0.795-0.145,1.523c0.138,0.055,0.241,0.016,0.31-0.116c0.023,0.049,0.065,0.111,0.101,0.15
		c1.248-0.557,1.966-0.619,2.473-2.077c2.184,1.068-1.326,2.209-1.36,2.355c-0.005-0.007,1.561,1.134,0.951,1.5
		c-1.146-0.911-1.752-0.621-2.411-1.13c-0.403,1.861,2.261,2.135,2.561,3.458c-0.189,0.121-3.848-1.768-2.608,1.399
		c0.734,0.263,0.892-0.675,1.282-1.24c0.919,3.222-0.343,1.472,1.281,0.961c0.012,0.014,0.036,1.298-0.253,1.298
		c0.641,0.119-3.243,0.278-2.452-0.494c-0.716,0.716,0.705,1.068,0.577,1.618c-0.479,0-2.376,1.292-1.308,1.708
		c0.275-0.163,0.15-0.535,0.38-0.719c0.248,0.688,0.248,0.688,0.57,0.768c0.083-0.191,0-0.435,0.188-0.593
		c0.074,0.117,1.212,0.765,1.768,0.57c0.132-0.284,0.104-0.601,0.223-0.886c0.058,0.228,0.217,0.417,0.455,0.417
		c0.031-0.227-0.117-0.433-0.072-0.658c0.635,0.644,0.635,0.644,0.671,0.637c0.107-0.213,0.078-0.468,0.184-0.684
		c0.084,0.536,0.315,0.617,0.692,0.243c0.246,0.248,0.045,0.603,0.207,0.867c0.793-0.724,1.56-3.068,0.916-1.693
		c-0.334-0.21-0.261-0.922-0.803-0.837c-0.08,0.129-0.093,0.292-0.21,0.397c-0.746-1.085-0.461-0.265-0.964-0.013
		c0.09-0.404,0.032-0.788-0.173-1.15c1.348,0.528,3.53-0.987,2.877-2.447c0.153,0.05-1.341-1.733-1.235-2.191
		c0.88-0.326,1.348,0.076,1.058-1.046c0.752-0.128,1.125,0.093,0.992-0.881c-0.02-0.017-0.049-0.036-0.071-0.054
		c-0.041,0.138-0.121,0.229-0.241,0.275c0.502,0.433-0.24-1.628-0.142-1.186c0.943,0.218,1.937-3.604,0.497-2.09
		c0.09,0.045,0.364-2.409,0.23-2.771v0.001h-0.003v0.005c-0.098,0.007-0.19-0.022-0.289-0.024c0.017,0.054,0.023,0.134,0.02,0.191
		c-0.077-0.082-0.823-0.693-0.788-0.683c0.016,0.055,0.026,0.133,0.032,0.195c-0.071,0.026-0.071,0.026-0.376-0.124
		c0,0.054-0.007,0.132-0.018,0.185c-0.023-0.013-0.045-0.031-0.067-0.044c0.013,0.191-0.017,0.19-0.158,0.333
		c-0.382-0.476-0.625-0.078-1.03-0.296c0.011,0.054-0.006,0.122-0.026,0.174c-0.218-0.236-0.218-0.236-0.268-0.259
		c-0.184,0.197,0.035,0.419-0.039,0.621c-0.226-0.073-0.331-0.294-0.497-0.439c0.033,0.195-0.04,0.287-0.218,0.273
		c0.01,0.323,0.42,0.448,0.394,0.787c-0.612-0.418-0.719-0.937-1.438-0.352c0.112,0.372,0.738,0.378,0.65,0.89
		c-0.036,0.047-0.053,0.149-0.076,0.195c-1.815-1.815-0.092-0.418-0.826-0.902c0.02,0.208,0.02,0.208-0.049,0.296
		c-0.073-0.078-0.135-0.168-0.215-0.238c-0.111,0.29-0.023,0.137-0.295,0.137c0.111,0.534,0.111,0.534,0.091,0.586
		c-0.357-0.367-0.338-0.235-0.473,0.194c-0.082-0.011-0.082-0.011-0.229-0.181C78.635,4.48,78.995,5.695,78.841,5.753
		C78.837,5.753,78.866,5.743,78.841,5.753z M76.713,30.297c0,0.718,4.093,0.687,4.348-0.093c-0.293,0.938-3.537-6.655-0.885-5.734
		C77.292,23.508,76.546,28.44,76.713,30.297z M72.011,11.421C74.026,10.199,70.082,10.706,72.011,11.421
		C72.044,11.401,71.985,11.411,72.011,11.421z M75.227,8.022c-0.232-0.199-0.353-0.196-0.614-0.254
		c-0.414,0.106-0.007,0.624-0.252,0.87c-0.039-0.01-0.039-0.01-0.142-0.121c-0.679,0.392-0.397,2.082-0.604,2.281
		c-0.256-0.085-0.157-0.171-0.386-0.258c-0.456,2.222,1.204,1.421,2.225,1.579c0.235,0.427-1.08,0.659-1.267,0.903
		c0.025-0.046,0.377,0.686,0.427,0.767c0.049-0.02,0.098-0.059,0.151-0.059c0.129-0.006,0.587,0.986,1.587,0.787
		c0.06-0.248-0.38-0.511-0.108-0.695c0.373,0.133,0.229,0.609,0.531,0.789c0.419-0.114-0.103-0.627,0.062-0.927
		c0.236-0.013,0.21,0.264,0.35,0.36c0.664-0.67-0.71-2.372,0.16-0.642c-0.232,0.145,1.294-1.558,1.225-1.411
		c0.029-0.044-0.329-0.542-0.337-0.547c-0.049,0.065-0.045,0.156-0.114,0.208c-0.513-0.346-0.167-0.448-0.642-0.117
		c-0.063-0.107-0.533-2.065-0.603-1.937c-0.446,0.766,0.113,1.028-0.443-0.135C75.228,9.375,76.103,8.863,75.227,8.022
		C75.224,8.019,75.336,8.127,75.227,8.022z M87.471,34.857c0.399-0.449,0.432-0.856,0.098-1.222
		C87.295,33.736,87.039,35.421,87.471,34.857C87.603,34.68,87.338,35.031,87.471,34.857z M92.728,36.271
		C92.098,36.656,94.264,35.434,92.728,36.271C92.635,36.327,92.81,36.226,92.728,36.271z M53.225,21.993
		c-2.455,1.926-2.963,2.82-2.602,5.669c2.271-0.774,9.482-3.023,6.925-5.926c-0.373-0.013-0.455,0.531-0.865,0.453
		c-0.104-0.303-0.596-1.52-0.764-1.647C53.233,20.109,54.957,20.648,53.225,21.993C52.687,22.415,53.684,21.636,53.225,21.993z
		 M95.765,69.048c-1.258,0.704,0.117,1.371,0.526,2.16c-0.171-0.72-0.344-1.442-0.514-2.164L95.765,69.048z M217.156,156.556
		c0.69-0.757,0.69-0.757,1.368-0.796c2.974,6.658-7.61,27.859-11.208,33.308c-5.217,7.9-12.975,14.159-19.142,21.341
		c-4.58,5.334-13.04,7.27-16.981,12.746c0.863-0.353,0.863-0.353,1.224-0.368c-0.102,0.083-0.235,0.197-0.338,0.273
		c0.229-0.093,0.549-0.199,0.794-0.254c-10.4,6.42-22.221,12.355-34.124,15.372c3.916-1.387,13.308-9.628,11.984-15.194
		c-2.013-6.037-10.878-1.707-15.828-4.581v0.003c-2.362,0-9.539-5.042-10.387-6.822c-3.384-0.539-3.782-2.775-2.358-6.175
		c-0.071-0.036-6.271,0.295-5.378-1.404c2.338-4.363,9.332-9.092,10.576-14.139c-1.644-2.697-0.827-10.772-6.829-9.544
		c-0.755,0.151-2.987,1.498-3.494,2.334c0.714,0.26,1.065,0.713,1.055,1.358c-3.295,1.731-12.764-4.312-14.021-3.219
		c0.418,0.141,0.492,0.388,0.225,0.741c-1.016-0.395-7.556-5.879-7.697-6.448c-0.081-0.929,0.254-0.848,0.736-1.609
		c-3.795,3.327-12.16,0.798-15.345-2.385c-3.42-3.417-10.983-1.359-15.999-2.823c-5.431-1.585-11.96-3.715-15.822-8.155
		c-1.864-2.144,0.304-4.283-2.083-7.421c-2.864-3.765-6.375-6.416-7.196-10.497c-2.962-1.332-8.645-9.741-6.976-13.08
		c-5.823-2.403-3.424,1.67-1.386,5.944c1.831,3.843,5.472,14.396,6.497,15.666c-3.735-4.613-6.17-8.86-9.449-13.707
		c1.854-2.179-2.287-9.264-3.723-13.15c-1.542-4.176-6.952-8.894-6.521-12.99c0.334-0.034,0.782,0.009,1.098,0.109
		c-4.342-6.513-1.377-10.255-1.007-16.735c0.079-1.381,3.665-12.923,4.403-13.574c1.688,0.328,1.923,2.234,2.498,3.379
		c0.907-1.679,0.913-6.289-1.342-6.69c0.903,1.197,0.945,2.299,0.125,3.304c-2.395-1.049-4.251-7.68-3.82-8.577
		c1.637-0.165,0.401,1.37,2,1.344c0.234-2.605-2.85-7.601-0.937-10.333c0.103,0.041,0.235,0.095,0.336,0.137
		c0.006-0.021,0.489-2.118,0.327-3.147c-0.768,0.071-1.001,0.608-1.665,0.496c0.274-1.258,1.071-3.867,0.743-5.073
		c-0.107,0.028-0.257,0.07-0.37,0.104c0.005-1.282,3.118-0.057,2.357-4.182c-0.453,0.869-0.968,1.7-1.546,2.491
		c-1.611-0.739-1.029-2.157,1.747-4.255c0,0,0,0-0.003,0c0.001-0.096-0.081-0.144-0.246-0.143c0.624-0.477,0.671-0.801,0.144-0.971
		c-0.763,2.046-0.763,2.046-1.173,2.357c0.075-0.42,0.093-0.534-0.279-1.413c-1.047,2.02,0.705,3.874-2.031,6.093
		c0.778-1.823,0.743-2.038,0.671-2.512c-0.121,0.037-0.285,0.088-0.402,0.122c1.157-3.183,0.405-5.484,0.487-8.652
		c-2.062-0.045-3.973-5.318-3.09-7.112c-0.408-0.031-1.117-0.489-1.351-0.79c-2.141,2.575-4.675,0.264-4.55,0.575
		c0.453-0.046,0.593-0.108,0.875-0.565c-0.217,0.02-0.518-0.057-0.707-0.158c0.478-0.653,2.812-2.753,3.263-0.982
		c0.604-0.66,0.604-0.66,0.81-0.844c-1.947-0.182-17.409,4.801-16.84,0.088c-1.958,0.11,0.818,0.252,2.121,0.386v0.003
		c2.2,0.366,4.561-0.268,6.655-1.766c-2.309-0.009-1.173-2.692-3.03-3.774c2.52-1.644,2.775-10.876,8.368-9.082
		c0.121,0.417,0.121,0.417-0.112,1.144c2.637-0.242,1.16,2.01,4.514-0.858c-0.127-0.358-0.127-0.358-1.557-0.805
		c0.062-0.106,0.149-0.246,0.211-0.352c-2.9-1.633,1.046-5.045,3.946-4.047c0.234,1.048-0.849,0.824-0.549,2.38
		c2.092,0.458,2.368-2.609,3.494-3.938c-1.158-0.082-0.068-0.619,0.355-0.986c-0.323-0.152-0.346-0.353-0.067-0.604
		c-0.114-0.013-0.269-0.034-0.381-0.047c2.326-0.803,7.651,0.113,10.514,1.354c0.064,0.194,0.064,0.194-0.912,1.926
		c1.82,0.361,3.562,10.541,5.226,12.292c1.496-2.099,4.445-0.732,6.305-0.148c-0.458,0.554-1.196,0.492-1.756,0.818
		c0.563-0.185,3.043-0.755,3.311-0.697c-0.442,4.608-0.69,2.376,1.559,1.419c0.15,0.368-1.494,3.095,0.419,1.876v0.002
		c2.688,0.482,6.494,3.018,4.369,5.85c2.342,2.276,5.859-0.044,6.252,3.892c1.815-3.313,1.815-3.313,3.072-3.687
		c1.927,3.493,9.867,1.759,5.671-1.042c0.823-0.248,0.823-0.248,1.414-1.633c1.368,0.134,1.842,1.613,2.127,2.493
		c-0.941,0.692-0.941,0.692-1.525,0.653c0.669,1.014,0.409,2.295,1.269,2.944c-0.041,0.022,3.148-4.701,1.382-3.594
		c0.37-1.694,0.37-1.694,0.036-2.194c-2.058,0.227-1.8-3.885-0.612-4.081c-0.338-1.347,0.3-6.287,2.049-6.827
		c0.593,0.484,1.267,0.668,2.02,0.552c-0.205,2.095-0.993,2.61-2.496,2.793c0.84,3.755,1.165,8.912,3.438,10.41
		c0.193-0.972,0.063-1.679,0.992-2.092c0.369,0.698,0.739,1.396,1.108,2.095c-0.158,0.072-0.368,0.174-0.521,0.251
		c0.127,0.691,0.223,1.191,1.395,2.305c1.577-1.309-0.291-1.074,0.588-2.333c0.072,0.176,0.171,0.401,0.245,0.57
		c0.015-0.015,1.124-2.046,0.951-3.333c-0.627,0.132-0.832-0.386-0.614-1.556c2.067-0.391,3.831,0.279,4.135,2.357
		c-0.282,0.248-0.676,0.569-0.982,0.792c0.512,0.846,2.878,4.688-0.292,4.534c-0.489-0.821-0.702-0.924-1.403-0.681
		c0.881,0.621,0.881,0.621,0.911,1.339c-1.462,0.52-1.027-0.533-2.618-0.301c-0.719,2.919,0.327,7.134-4.832,8.044
		c1.395,0.451-7.381,8.704-3.613,12.357c1.921-0.502,3.136,3.349,1.804,4.605c5.188-2.099,10.449,2.742,15.791,2.418
		c2.397,0.54,1.432,11.025,6.773,8.865c0.075-0.349,0.292-0.784,0.505-1.067c0.174,0.136,0.572,0.45,0.785,0.598
		c-0.178-2.237-0.86-4.092-1.769-6.352c-0.982-4.14,3.572-4.7,1.539-8.999c-1.029-2.193-7.229-9.261-4.726-12.577
		c1.082-0.222,9.443-1.745,7.893,1.722c0.717,0.249,1.072,0.141,1.061-0.738c0.002,0,0.005,0,0.007,0
		c0.631-0.074,0.638,0.204,1.117,0.632c0.091-0.254,0.253-0.59,0.41-0.81c1,3.893,3.316,4.39,5.727,4.39
		c0.404-1.549,0.381-3.823,0.766-5.412c2.972,2.729,7.926,4.743,9.15,8.481c0.017-0.036,5.958,0.119,6.754,0.132
		c-0.771,0.45-0.936,0.902-0.496,1.357c1.449-1.071,0.981,0.46,2.065,0.648c-0.01-0.252,0.029-0.595,0.119-0.831
		c9.097,1.058-2.739,11.839-5.85,13.006c-5.58,2.094-5.38,8.021-7.406,13.009c1.04-1.409,4.738-12.447,8.631-9.354
		c-0.077,0.09-0.176,0.207-0.25,0.3c0.236,0.063,0.523,0.24,0.697,0.412c-0.354,1.831-2.51,1.753-3.302,3.123
		c-1.044,0.616,0.851-0.151,1.141-0.306c0.18-0.098,2.358-0.485,2.351-0.489c0.05,0.598,0.084,1.198,0.103,1.798
		c0.188-0.107,0.504-0.176,0.717-0.143c0.314,2.25,2.069,0.604,2.97,0.904c-0.071,0.101-0.166,0.231-0.234,0.333
		c1.226,0.469,2.31-1.145,1.819,0.683c1.81-0.999,0.952-3.23,2.169-4.707c0.932,1.839,0.873,0.659,1.834,1.587
		c-1.826,1.989-5.84,9.946-7.529,9.915c0.151-1.821,1.192-4.658,0.871-6.308c-0.904,1.391-4.496,3.473-4.672,3.998
		c0.775-1.053-3.196,7.438-3.12,9.268c0.713-0.192,1.2,0.199,1.462,1.176c-1.379,0-5.68,3.066-5.68,3.985
		c1.276-0.902,1.501-0.849,1.947-0.736c-0.688,1.123-1.561,1.54-2.615,1.251c-0.58,1.213,0.788,2.58-0.358,4.376
		c-1.624-0.175-1.598-0.28-1.151-2.067c-2.428,2.215,2.89,5.195,0.134,6.98c-0.109-1.499-0.998-4.706-2.25-5.595
		c0.851,1.854,0.703,3.187-0.705,3.863c1.846,0.791,1.846,0.791,2.004,1.28c-0.116,0.018-0.116,0.018-1.109-0.217
		c0.501,0.344,1.686,0.679,0.852,1.319c0.214,0.106,0.463,0.321,0.583,0.526c-1.241-0.183-1.241-0.183-1.422-0.078
		c0.904-0.108,1.513,0.424,2.438,0.376c0.659,1.138,0.421,1.929-0.717,2.375c0.212-0.042,1.553-0.244,1.878-0.132
		c0.052,1.536-1.17,1.535-2.17,1.884c0.249,0.045,0.576,0.123,0.817,0.2c-0.112,0.49-0.14,0.614-0.769,0.753
		c0.21,0.029,0.21,0.029,1.176-0.038c0,0.917-7.674,9.775-8.474,11.618c-1.265,2.915,9.651,12.78,3.57,14.479
		c-2.513-2.354-6.911-10.209-9.619-10.49v0.002c-3.834,1.353-10.798,0.456-14.857,1.438c0.624,0.257,2.041,0.371,2.486,0.974
		c-1.576,2.501-22.075-0.225-19.139,8.218c1.555,4.473-1.201,9.921,2.118,13.991c4.679,5.738,4.8,4.251,11.807,6.08
		c0.003-0.132,0.01-0.308,0.01-0.441c1.964-1.338,2.536,1.457,4.069-0.693c-0.119-0.075-0.275-0.178-0.395-0.258
		c2.274-2.199,1.402-5.803,4.954-6.918c1.301-0.408,4.008,0.339,4.918-0.408c0.993,0.894-1.833,12.821-2.141,13.499
		c2.802,2.441,10.754-4.15,12.914-0.216c4.626,1.095,0.378,4.589,2.123,7.982c-1.24,1.988,6.363,6.938,9.268,3.973
		c1.18-1.205,2.243-1.054,3.668-1.662v-0.003c5.191,0,4.637,0.741,8.778-2.291c-1.655-4.384,9.56-8.072,9.948-9.064
		c0.072-0.184-3.299,8.959,0.378,6.67c3.115-2.382-1.793-9.017,5.857-7.291c6.911,1.559,9.04-4.781,15.707-5.196
		c-0.17,0.279-0.302,0.701-0.336,1.025c1.886-0.96,3.103-0.792,3.652,0.503c-0.827,0.29-1.327,0.836-1.499,1.638
		c4.19-1.059,9.269,1.959,12.945,0.228c3.775-1.784,5.828-4.852,10.434-4.076c2.425,0.409,7.125,5.135,3.908,7.279
		c0.371-0.16,0.698-0.394,0.982-0.7c-0.336,2.172-1.21,1.934-0.527,3.79c-0.067-3.139,4.335-4.152,4.382-4.146
		c-0.039,1.385-0.817,2.55-1.144,3.857c0.844-2.477,0.844-2.477,7.931-7.459c1.339,0.583,1.261,0.858,0.827,2.363
		C205.795,160.527,213.41,160.688,217.156,156.556C217.846,155.799,215.74,158.118,217.156,156.556z M102.112,96.983
		c-0.544,0.344-0.707,0.443-0.561,1.519c1.555-0.228,5.432-1.691,6.251-2.659C107.178,93.213,102.135,97.097,102.112,96.983
		C101.568,97.326,102.097,96.911,102.112,96.983z M102.556,99.284c-2.321,0.471-4.832,4.36-7.101,3.356
		c-0.166,0.305-0.344,0.728-0.435,1.057c2.582,1.176,7.948-1.888,8.159-4.699c-0.097,0.062-0.231,0.151-0.329,0.215
		C102.593,97.673,102.494,97.697,102.556,99.284C102.416,99.313,102.757,98.835,102.556,99.284z M91.107,93.268
		c-0.155,0.174-3.399,1.143-3.76,1.354c-0.063-0.1-0.119-0.212-0.184-0.311c-0.963-0.129-2.162,3.509-2.149,3.544
		c0.739-0.147,1.237-2.585,1.971-2.463c0.117-0.454-1.522,14.144,1.597,8.945c1.542-2.544-2.544-7.251,1.155-8.561
		c2.299-6.154,3.259,2.635,3.539,3.078c-1.741-2.866,4.871,1.43,3.143,1.079c2.106,0.403,0.607-5.067,0.273-5.783
		c0.347-0.701,2.233,1.24,1.997,0.924v-0.002c0.505,0.005,1.106,0.676,1.511,0.091c-0.622-1.161-0.802-0.15-0.017-0.739
		c0.331-2.511-6.899-3.259-7.634-2.088c0.685,1.663,3.808-1.048,4.169,0.616C97.255,94.474,92.095,92.478,91.107,93.268
		C90.79,93.625,91.117,93.26,91.107,93.268z M79.212,90.241c-0.257,0.231-2.476,2.273-2.44,2.581
		c0.794-0.144,1.566-0.365,2.315-0.666c0.01,0.006,0.01,0.006-0.049,0.643c1.112,1.35,4.595-3.033,5.404-2.42
		c-0.461,0.392-0.774,0.875-0.94,1.45c0.566,1.587,6.142-0.16,6.646,0.228c-1.707-1.451-0.424-7.293-7.784-3.806
		C81.997,87.778,80.026,89.501,79.212,90.241C78.954,90.473,79.394,90.075,79.212,90.241z M39.109,105.25
		c-0.366,0.284-0.142-1.439-0.142-1.436c0.664,0.559-1.8-0.628-1.376-0.79C37.165,103.217,37.342,106.153,39.109,105.25
		C39.153,105.216,39.086,105.262,39.109,105.25z M45.7,40.759c0.6,0.706,0.296,1.29-0.912,1.754
		c1.142-0.462,2.068-2.192,3.022-1.033c1.326-1.261,1.326-1.261,1.329-1.958c-1.003,0.575-1.262,0.425-2.04-0.546
		c0.272-0.282,0.59-0.695,0.787-1.028c1.149-0.1-5.09,0.137-5.326,0.515c0.95,0.811,2.691-0.21,3.18,1.403
		c-0.711,0.163-2.18,0.096-2.139,1.66C44.782,42.147,44.542,41.146,45.7,40.759C45.788,40.915,45.067,40.97,45.7,40.759z
		 M50.084,52.899c-0.14-0.79-1.355-3.681-2.56-4.462c-2.111,2.274,2.011,3.324-2.014,4.034
		C43.787,53.289,50.51,55.328,50.084,52.899C49.993,52.382,50.154,53.298,50.084,52.899z M55.084,59.716
		c0.095-0.222-4.005-1.323-4.804,0.789C50.436,60.442,55.084,59.289,55.084,59.716C55.131,59.605,55.084,59.718,55.084,59.716z
		 M67.534,80.612c2.322,1.087-0.487,1.24,0.662,3.053c0.937,1.536-0.757-10.963-2.807-8.712c-0.589,0.532-0.687,1.136-0.294,1.812
		c0.767,0,0.614,1.853,1.406,2.733C66.338,79.323,67.833,80.784,67.534,80.612z M189.298,171.21c-0.351,0.56-0.69,1.13-0.937,1.739
		C188.892,172.06,189.103,171.7,189.298,171.21z M131.976,63.698c-1.082,0.414-1.134,7.924-0.782,9.332
		c-0.823-2.17,1.691,2.71,0.74,1.901c0.46,0.372,6.617-3.499,6.739-3.245c0.122,0.315-0.401,1.23-0.401,1.686
		c0.124,0.132,0.563,0.034,0.565,0.029c0.162-0.165,0.513-2.714,0.561-2.831c0.728-0.52,0.933,1.949,1.199,2.141
		c-0.53-0.396,1.686-0.238,1.686-0.251c0-0.778-0.465-2.645-1.146-3.122c-0.463,0.098,0.327,0.863-0.1,0.952
		c-0.177-0.11-0.462-1.384-0.568-1.365c-0.05,0.585-0.139,1.165-0.267,1.737c-0.286-0.578-0.144-2.625-0.526-2.923
		c-0.188-0.054-5.24-0.677-5.234-0.704c-0.845-0.873-1.48,1.649-1.324,1.468C131.972,67.312,133.02,63.241,131.976,63.698
		C131.835,63.751,132.132,63.629,131.976,63.698z M105.694,50.564C104.237,51.174,106.948,50.132,105.694,50.564
		C105.227,50.76,105.907,50.49,105.694,50.564z M93.717,73.829c0.775,0.33-1.434,0.063-1.533,0.169
		C91.373,75.157,96.507,74.759,93.717,73.829C93.678,73.812,94.006,73.925,93.717,73.829z M102.553,43.561
		c0.083-0.374,3.136,0.654,4.125,0.199c-0.156-0.375-0.862-0.647-0.515-1.108c0.317,0.144,0.317,0.144,0.466,0.151
		c-1.375-3.27-7.592-2.52-5.835-6.49c0.796,0.558,1.53,1.345,2.222,0.751c0.637,1.573,1.478,1.003,2.678,1.789
		c-0.011-1.319-1.794-3.816-0.138-3.792c-0.16-0.311-0.103-0.545,0.171-0.704c-0.19-0.872-1.827-0.07-2.414-0.591
		c-2.577,2.251-7.61-4.905-7.489-4.887c-0.135,0.948-0.135,0.948-0.168,1.008c-0.195-0.07-0.347-0.243-0.554-0.293
		c0.015,0.496-0.168,0.689-0.549,0.58c-0.411-0.759,0.989-1.126,0.461-1.853c-0.565,0.559-1.021,0.615-1.369,0.168
		c-1.278,1.211,0.702,2.29-0.58-0.402c-0.875,0.302-1.056,0.771-0.542,1.409c-1.602,0.321-0.67-1.438-0.278-1.768
		c-0.129-0.588-0.821-0.676-1.15-0.59c-0.717,2.115-0.406,0.116-1.762,0.116c0.903-1.46-1.619,0.719-1.387-0.487
		c0.406,0.125-1.991-3.292-1.748,0.969c-0.965,0.539-0.524-0.548-0.992-0.855c-0.029,0.088-0.072,0.204-0.103,0.293
		c-0.172-0.022-0.298-0.158-0.469-0.184c-0.184,0.487-0.102,0.783-0.443,1.16c0.018-0.522-0.181-0.777-0.595-0.766
		c0.639-0.75,0.661-1.519,0.067-2.307c0.928-0.213,2.147,1.946,3.495-0.051c-1.447-1.626-2.206-0.334-3.679-1.163
		c0.488-0.817-4.531,4.371-2.644,3.668c0.075,0.222,0.083,0.461,0.174,0.681c-0.182-0.117-0.416-0.052-0.6-0.156
		c-0.159,0.708-0.423,0.892,0.487,1.451c0.119-0.099,0.178-0.25,0.287-0.354c0.151,0.269,0.189,1.799,0.003,1.976
		c-0.426-0.245-3.777,0.281-3.866,0.448c0.4,1.036,1.834,1.264,2.632,0.813c0.157,1.147,2.973,0.851,3.975,0.671
		c-0.181-1.709,1.857,0.712,3.035-0.766c-1.076-3.861,2.6,2.399,4.076,1.424c0.328,0.195,0.298,0.419,0.285,0.512
		c-0.09-0.002-0.207,0.022-0.289,0.065c-0.016,0.132-0.041,0.417,0.43,0.784c0.251-0.144,0.677-0.849,0.903-1.096
		c2.178,2.634,2.059,4.28,2.885,7.453c-0.972,0.031-4.876,2.004-4.274,3.332c0.655,1.612,2.557-0.714,3.558-0.554
		c0.625-0.654,3.876-0.554,4.625,0.961c-0.048,0.122-0.119,0.182-0.213,0.181c0,0.008,0,0.008,0,0.008
		c-0.065,0-0.141,0.074-0.178,0.1c0.226,0.978,7.123,1.977,7.717,1.13c-0.485-1.729-4.012-1.468-4.995-2.882
		C101.809,43.417,102.202,43.632,102.553,43.561C102.576,43.455,102.202,43.632,102.553,43.561z M94.421,65.928
		c-0.032-0.168-0.14-0.188-0.199-0.178C93.457,66.005,94.65,67.128,94.421,65.928C94.388,65.76,94.481,66.245,94.421,65.928z
		 M92.378,47.884c-0.319-0.25-0.661-0.374-1.025-0.373C91.404,47.814,92.508,48.829,92.378,47.884
		C92.319,47.461,92.404,48.073,92.378,47.884z M108.036,46.491c-0.183,0.084-0.22,0.27-0.112,0.555
		C108.535,47.658,109.029,46.104,108.036,46.491C108.024,46.496,108.295,46.39,108.036,46.491z M90.94,51.312
		c0.045-0.357-0.138-0.613-0.551-0.769v0.003c-0.004,0-0.009,0-0.013,0C89.49,50.965,90.753,53.628,90.94,51.312
		C90.946,51.263,90.936,51.354,90.94,51.312z M126.036,80.713c0.558-0.265-0.628-0.212,0.593,0.262
		C126.483,80.786,126.284,80.699,126.036,80.713C125.841,80.806,126.258,80.609,126.036,80.713z M127.453,80.128
		c-1.324,0.84,1.796,0.93,2.114,0.564c-0.056-0.333-0.051-0.662,0.014-0.986C129.574,79.65,127.226,80.226,127.453,80.128
		C127.024,80.401,127.856,79.956,127.453,80.128z M126.675,73.459c0.071-0.012,0.115-0.044,0.132-0.098
		c-0.728-1.167-5.17-0.023-4.893,0.337C122.708,74.634,125.701,73.783,126.675,73.459C126.699,73.452,126.371,73.56,126.675,73.459z
		 M129.001,76.458c-0.031-0.073-0.093-0.158-0.183-0.123C127.327,77.489,129.688,78.033,129.001,76.458
		C128.97,76.385,129.15,76.799,129.001,76.458z M94.701,65.899c0.056,0.036,0.494-1.251,0-1.171
		C94.913,64.674,94.335,65.691,94.701,65.899C94.769,65.943,94.631,65.859,94.701,65.899z M95.46,72.954
		c-0.028-0.217-0.326-0.16-0.329-0.16c-0.257,0.086,0.112,0.419,0.119,0.42C95.432,73.345,95.467,73.017,95.46,72.954
		C95.432,72.737,95.467,73.017,95.46,72.954z M95.587,65.156c-0.033-0.151-0.107-0.22-0.217-0.197
		C95.242,65.965,95.314,66.03,95.587,65.156z M97.081,75.986c-0.037-0.306-1.303-0.091-0.519,0.539
		C96.89,76.476,97.063,76.297,97.081,75.986C97.068,75.873,97.094,76.088,97.081,75.986z M87.212,49.749
		c-0.891,0.173-1.725,0.692-1.916,1.62C87.034,52.333,86.584,49.817,87.212,49.749C87.044,49.782,87.303,49.74,87.212,49.749z
		 M88.162,48.251c2.497-1.04-1.664-1.168-1.251-0.941c-0.754-0.414-3.021-2.125-3.79-2.496c-0.164-0.306-0.746-1.279-1.14-1.331
		c0.41-0.202-0.486,6.101-0.999,5.707c-0.778-0.338,4.106,0.048,2.486,0.725c1.334-0.572,0.847-2.704,2.162-3.131
		C85.984,46.852,87.062,48.801,88.162,48.251C88.346,48.174,88.142,48.26,88.162,48.251z M66.722,27.355
		c-0.286,1.788,2.492,2.653,3.004,2.333c1.661,1.34,2.095-2.847,1.473-3.181c-0.065,0.403-0.173,0.795-0.326,1.174
		c0.066-0.957-0.229-1.129-0.888-0.518c-0.25-0.359,2.12-2.231,0.841-2.393C68.9,24.903,66.743,27.224,66.722,27.355
		C66.671,27.672,66.774,27.037,66.722,27.355z M75.939,16.871c0.536,0.429,0.629-0.881-0.147-0.881
		C74.73,16.347,75.821,16.798,75.939,16.871C75.988,16.91,75.864,16.824,75.939,16.871z M66.43,33.721
		c-3.176-2.069,0.164-7.698-0.832-8.618c-0.185,0.003,0.02-0.164-0.284-0.441c-1.862-0.048-0.352,0.974-0.723,1.957
		c-0.337-0.655-0.859-0.956-1.566-0.901c-0.466,0.551,0.175,3.896-0.997,3.839c0.063-1.182-0.09-2.338-0.458-3.468
		c-0.103-0.088-0.463,1.825-1.849,1.3c1.181,0.394-1.31-1.197-1.478-1.281c0.733-0.562,0.878-1.111,0.437-1.648
		c-1.648,0.25-3.894,1.195-4.615,2.756c-1.003,1.755,2.246,0.775,2.214,1.383c-1.175-0.288-2.045,0.006-2.612,0.883
		c1.266,1.346,3.101,0.734,4.172,1.931c0.696,0.78-4.032-0.434-4.508,0.411c-0.711,1.262,3.11,4.927,4.832,4.395
		c1.878-0.619,3.015-1.316,3.724-0.591c0.146-0.034,0.192-0.206,0.331-0.246c0.749,0.451,0.635,0.093,0.48,0.904
		c2.099,1.718,3.429-1.664,1.908-0.507c0.58-3.226-0.583-0.226,0.71-0.87c0.221-0.744,0.221-0.744,0.225-0.748
		c0.279,0.526,0.55,0.562,0.813,0.106c0.103,0.153,0.096,0.354,0.181,0.51c0.319-0.321,0.418-0.689,0.296-1.104
		C66.688,33.548,66.58,33.812,66.43,33.721C66.267,33.615,66.58,33.812,66.43,33.721z M74.179,18.445
		c0.165-0.673-1.847-1.359-1.925-0.476C72.084,20.036,74.163,18.444,74.179,18.445z M92.177-21.733
		c0.535-0.434-0.316-0.155-0.561-0.212c0.962-0.875,0.324-0.136,0.01-0.293c0-0.091,0.094-0.153,0.078-0.245
		c-0.212,0.092-0.323,0.031-0.333-0.184c-0.116,0.021-0.466,0.424-0.469,0.489c0.134-0.025,0.266-0.054,0.397-0.088
		c0,0.581-0.293,0.088,0.003,0.385c-0.17,0.172-0.386,0.281-0.647,0.326c-0.512,0.07-1.978,0.314-0.611,0.586
		c0.157-0.099,0.246-0.096,0.267,0.008c0.13,0.041,0.192-0.104,0.308-0.111c0,0.663,1.349,0.05,1.52,0.184
		c-0.397-0.397,0.513-0.782-0.107-0.712C92.041-21.625,92.051-21.633,92.177-21.733C92.332-21.858,92.051-21.633,92.177-21.733z
		 M72.26,22.148c0.404,0.277,0.634,1.061,1.442,0.888c0.52-0.234,0.1-2.347-0.557-2.374c-0.536,0.12-1.094,1.598-1.025,1.579
		C72.182,22.285,72.208,22.169,72.26,22.148C72.296,22.173,72.208,22.169,72.26,22.148z M90.268,38.006
		c1.327,1.034,2.387-2.082,0.891-2.488C89.894,35.218,89.14,37.238,90.268,38.006C90.521,38.202,90.244,37.989,90.268,38.006z"/>
</g>
</svg>
